<?xml version="1.0" standalone="no"?>
<!DOCTYPE svg PUBLIC "-//W3C//DTD SVG 20010904//EN"
 "http://www.w3.org/TR/2001/REC-SVG-20010904/DTD/svg10.dtd">
<svg version="1.0" xmlns="http://www.w3.org/2000/svg"
 width="500.000000pt" height="500.000000pt" viewBox="0 0 500.000000 500.000000"
 preserveAspectRatio="xMidYMid meet">
<metadata>
Created by potrace 1.14, written by Peter Selinger 2001-2017
</metadata>
<g transform="translate(0.000000,500.000000) scale(0.100000,-0.100000)"
fill="#000000" stroke="none">
<path d="M345 2485 l0 -875 217 0 218 0 1 33 c0 48 0 1690 0 1705 -1 9 -52 12
-219 12 l-217 0 0 -875z"/>
<path d="M1482 2485 l0 -875 219 0 219 0 0 875 0 875 -219 0 -219 0 0 -875z"/>
<path d="M2167 3249 l-107 -110 1 -195 1 -195 92 -81 c141 -126 181 -161 212
-188 16 -14 63 -54 104 -90 41 -36 88 -76 104 -90 16 -14 36 -33 45 -42 8 -10
20 -18 26 -18 7 0 10 91 9 268 l-1 269 -44 40 c-24 22 -59 53 -76 68 -29 23
-33 33 -33 75 l0 49 77 3 77 3 0 170 0 170 -189 2 -190 2 -108 -110z"/>
<path d="M2696 3188 l1 -173 76 -3 76 -3 3 -130 3 -130 193 0 c105 0 203 1
217 1 l25 0 0 305 0 305 -297 0 -298 0 1 -172z"/>
<path d="M3425 2485 l0 -875 217 0 218 0 1 33 c0 17 1 411 2 875 l2 842 -220
0 -220 0 0 -875z"/>
<path d="M3905 3185 l0 -175 152 0 153 0 0 -524 0 -524 -147 -1 c-81 -1 -149
-4 -152 -7 -3 -3 -6 -82 -6 -175 l0 -169 263 0 264 0 109 108 109 108 0 659 0
658 -109 108 -109 109 -264 0 -263 0 0 -175z"/>
<path d="M829 3225 c-3 -6 -5 -226 -4 -490 l1 -480 64 -147 65 -148 176 0 175
0 67 150 66 149 0 488 c0 269 -4 481 -8 473 -4 -8 -73 -187 -151 -398 -79
-210 -147 -379 -151 -375 -8 8 -275 717 -288 763 -4 13 -9 20 -12 15z"/>
<path d="M2699 2729 c-6 -89 -2 -519 4 -534 5 -11 40 -47 78 -79 68 -58 69
-60 69 -107 l0 -49 -77 0 -78 0 2 -167 c0 -93 2 -171 2 -175 1 -5 84 -8 186
-8 l184 0 111 110 110 111 0 199 c0 109 -4 200 -9 202 -5 2 -42 33 -82 69 -41
37 -130 115 -199 175 -69 59 -127 111 -130 114 -3 3 -36 32 -75 64 -38 33 -76
66 -82 75 -11 13 -13 13 -14 0z"/>
<path d="M2080 2218 c-19 -7 -20 -19 -19 -308 l1 -300 296 2 296 3 -1 160 c-1
88 -2 166 -2 173 -1 8 -23 12 -76 12 l-75 0 0 130 0 130 -27 1 c-115 5 -378 3
-393 -3z"/>
</g>
</svg>
